# Blender v2.80 (sub 45) OBJ File: 'tree3.blend'
# www.blender.org
mtllib tree3.mtl
o Cone
v 0.000000 3.043224 -2.000000
v 0.390181 3.043224 -1.961571
v 0.765367 3.043224 -1.847759
v 1.111140 3.043224 -1.662939
v 1.414214 3.043224 -1.414214
v 1.662939 3.043224 -1.111140
v 1.847759 3.043224 -0.765367
v 1.961571 3.043224 -0.390181
v 2.000000 3.043224 -0.000000
v 1.961571 3.043224 0.390180
v 1.847759 3.043224 0.765367
v 1.662939 3.043224 1.111140
v 1.414214 3.043224 1.414214
v 1.111140 3.043224 1.662939
v 0.765367 3.043224 1.847759
v 0.390180 3.043224 1.961571
v -0.000001 3.043224 2.000000
v -0.390181 3.043224 1.961570
v -0.765368 3.043224 1.847759
v -1.111141 3.043224 1.662939
v -1.414214 3.043224 1.414213
v -1.662940 3.043224 1.111139
v -1.847760 3.043224 0.765365
v 0.000000 5.674259 0.000000
v -1.961571 3.043224 0.390179
v -2.000000 3.043224 -0.000002
v -1.961570 3.043224 -0.390183
v -1.847758 3.043224 -0.765369
v -1.662938 3.043224 -1.111143
v -1.414212 3.043224 -1.414215
v -1.111138 3.043224 -1.662941
v -0.765364 3.043224 -1.847760
v -0.390178 3.043224 -1.961571
vt 0.250000 0.490000
vt 0.250000 0.250000
vt 0.296822 0.485388
vt 0.341844 0.471731
vt 0.383337 0.449553
vt 0.419706 0.419706
vt 0.449553 0.383337
vt 0.471731 0.341844
vt 0.485388 0.296822
vt 0.490000 0.250000
vt 0.485388 0.203178
vt 0.471731 0.158156
vt 0.449553 0.116663
vt 0.419706 0.080294
vt 0.383337 0.050447
vt 0.341844 0.028269
vt 0.296822 0.014612
vt 0.250000 0.010000
vt 0.203178 0.014612
vt 0.158156 0.028269
vt 0.116663 0.050447
vt 0.080294 0.080294
vt 0.050447 0.116663
vt 0.028269 0.158156
vt 0.014611 0.203179
vt 0.010000 0.250000
vt 0.014612 0.296822
vt 0.028269 0.341844
vt 0.050447 0.383337
vt 0.080295 0.419706
vt 0.116663 0.449553
vt 0.158156 0.471731
vt 0.203179 0.485389
vt 0.750000 0.490000
vt 0.796822 0.485388
vt 0.841844 0.471731
vt 0.883337 0.449553
vt 0.919706 0.419706
vt 0.949553 0.383337
vt 0.971731 0.341844
vt 0.985388 0.296822
vt 0.990000 0.250000
vt 0.985388 0.203178
vt 0.971731 0.158156
vt 0.949553 0.116663
vt 0.919706 0.080294
vt 0.883337 0.050447
vt 0.841844 0.028269
vt 0.796822 0.014612
vt 0.750000 0.010000
vt 0.703178 0.014612
vt 0.658156 0.028269
vt 0.616663 0.050447
vt 0.580294 0.080294
vt 0.550447 0.116663
vt 0.528269 0.158156
vt 0.514611 0.203179
vt 0.510000 0.250000
vt 0.514612 0.296822
vt 0.528269 0.341844
vt 0.550447 0.383337
vt 0.580295 0.419706
vt 0.616663 0.449553
vt 0.658156 0.471731
vt 0.703179 0.485389
vn 0.0782 0.6033 -0.7937
vn 0.2315 0.6033 -0.7632
vn 0.3759 0.6033 -0.7033
vn 0.5059 0.6033 -0.6165
vn 0.6165 0.6033 -0.5059
vn 0.7033 0.6033 -0.3759
vn 0.7632 0.6033 -0.2315
vn 0.7937 0.6033 -0.0782
vn 0.7937 0.6033 0.0782
vn 0.7632 0.6033 0.2315
vn 0.7033 0.6033 0.3759
vn 0.6165 0.6033 0.5059
vn 0.5059 0.6033 0.6165
vn 0.3759 0.6033 0.7033
vn 0.2315 0.6033 0.7632
vn 0.0782 0.6033 0.7937
vn -0.0782 0.6033 0.7937
vn -0.2315 0.6033 0.7632
vn -0.3759 0.6033 0.7033
vn -0.5059 0.6033 0.6165
vn -0.6165 0.6033 0.5059
vn -0.7033 0.6033 0.3759
vn -0.7632 0.6033 0.2315
vn -0.7937 0.6033 0.0782
vn -0.7937 0.6033 -0.0782
vn -0.7632 0.6033 -0.2315
vn -0.7033 0.6033 -0.3759
vn -0.6165 0.6033 -0.5059
vn -0.5059 0.6033 -0.6165
vn -0.3759 0.6033 -0.7033
vn -0.2315 0.6033 -0.7632
vn -0.0782 0.6033 -0.7937
vn 0.0000 -1.0000 -0.0000
usemtl Material.001
s off
f 1/1/1 24/2/1 2/3/1
f 2/3/2 24/2/2 3/4/2
f 3/4/3 24/2/3 4/5/3
f 4/5/4 24/2/4 5/6/4
f 5/6/5 24/2/5 6/7/5
f 6/7/6 24/2/6 7/8/6
f 7/8/7 24/2/7 8/9/7
f 8/9/8 24/2/8 9/10/8
f 9/10/9 24/2/9 10/11/9
f 10/11/10 24/2/10 11/12/10
f 11/12/11 24/2/11 12/13/11
f 12/13/12 24/2/12 13/14/12
f 13/14/13 24/2/13 14/15/13
f 14/15/14 24/2/14 15/16/14
f 15/16/15 24/2/15 16/17/15
f 16/17/16 24/2/16 17/18/16
f 17/18/17 24/2/17 18/19/17
f 18/19/18 24/2/18 19/20/18
f 19/20/19 24/2/19 20/21/19
f 20/21/20 24/2/20 21/22/20
f 21/22/21 24/2/21 22/23/21
f 22/23/22 24/2/22 23/24/22
f 23/24/23 24/2/23 25/25/23
f 25/25/24 24/2/24 26/26/24
f 26/26/25 24/2/25 27/27/25
f 27/27/26 24/2/26 28/28/26
f 28/28/27 24/2/27 29/29/27
f 29/29/28 24/2/28 30/30/28
f 30/30/29 24/2/29 31/31/29
f 31/31/30 24/2/30 32/32/30
f 32/32/31 24/2/31 33/33/31
f 33/33/32 24/2/32 1/1/32
f 1/34/33 2/35/33 3/36/33 4/37/33 5/38/33 6/39/33 7/40/33 8/41/33 9/42/33 10/43/33 11/44/33 12/45/33 13/46/33 14/47/33 15/48/33 16/49/33 17/50/33 18/51/33 19/52/33 20/53/33 21/54/33 22/55/33 23/56/33 25/57/33 26/58/33 27/59/33 28/60/33 29/61/33 30/62/33 31/63/33 32/64/33 33/65/33
o Cone.001
v 0.000000 0.753063 -2.500000
v 0.487726 0.753063 -2.451963
v 0.956709 0.753063 -2.309699
v 1.388926 0.753063 -2.078674
v 1.767767 0.753063 -1.767767
v 2.078674 0.753063 -1.388925
v 2.309699 0.753063 -0.956709
v 2.451963 0.753063 -0.487726
v 2.500000 0.753063 -0.000000
v 2.451963 0.753063 0.487725
v 2.309699 0.753063 0.956708
v 2.078674 0.753063 1.388925
v 1.767767 0.753063 1.767767
v 1.388925 0.753063 2.078674
v 0.956708 0.753063 2.309699
v 0.487725 0.753063 2.451963
v -0.000001 0.753063 2.500000
v -0.487727 0.753063 2.451963
v -0.956710 0.753063 2.309698
v -1.388927 0.753063 2.078673
v -1.767768 0.753063 1.767766
v -2.078675 0.753063 1.388924
v -2.309700 0.753063 0.956707
v 0.000000 3.953063 0.000000
v -2.451964 0.753063 0.487724
v -2.500000 0.753063 -0.000002
v -2.451963 0.753063 -0.487728
v -2.309698 0.753063 -0.956711
v -2.078672 0.753063 -1.388928
v -1.767765 0.753063 -1.767769
v -1.388923 0.753063 -2.078676
v -0.956705 0.753063 -2.309700
v -0.487722 0.753063 -2.451964
vt 0.250000 0.490000
vt 0.250000 0.250000
vt 0.296822 0.485388
vt 0.341844 0.471731
vt 0.383337 0.449553
vt 0.419706 0.419706
vt 0.449553 0.383337
vt 0.471731 0.341844
vt 0.485388 0.296822
vt 0.490000 0.250000
vt 0.485388 0.203178
vt 0.471731 0.158156
vt 0.449553 0.116663
vt 0.419706 0.080294
vt 0.383337 0.050447
vt 0.341844 0.028269
vt 0.296822 0.014612
vt 0.250000 0.010000
vt 0.203178 0.014612
vt 0.158156 0.028269
vt 0.116663 0.050447
vt 0.080294 0.080294
vt 0.050447 0.116663
vt 0.028269 0.158156
vt 0.014611 0.203179
vt 0.010000 0.250000
vt 0.014612 0.296822
vt 0.028269 0.341844
vt 0.050447 0.383337
vt 0.080295 0.419706
vt 0.116663 0.449553
vt 0.158156 0.471731
vt 0.203179 0.485389
vt 0.750000 0.490000
vt 0.796822 0.485388
vt 0.841844 0.471731
vt 0.883337 0.449553
vt 0.919706 0.419706
vt 0.949553 0.383337
vt 0.971731 0.341844
vt 0.985388 0.296822
vt 0.990000 0.250000
vt 0.985388 0.203178
vt 0.971731 0.158156
vt 0.949553 0.116663
vt 0.919706 0.080294
vt 0.883337 0.050447
vt 0.841844 0.028269
vt 0.796822 0.014612
vt 0.750000 0.010000
vt 0.703178 0.014612
vt 0.658156 0.028269
vt 0.616663 0.050447
vt 0.580294 0.080294
vt 0.550447 0.116663
vt 0.528269 0.158156
vt 0.514611 0.203179
vt 0.510000 0.250000
vt 0.514612 0.296822
vt 0.528269 0.341844
vt 0.550447 0.383337
vt 0.580295 0.419706
vt 0.616663 0.449553
vt 0.658156 0.471731
vt 0.703179 0.485389
vn 0.0774 0.6138 -0.7857
vn 0.2292 0.6138 -0.7555
vn 0.3722 0.6138 -0.6962
vn 0.5008 0.6138 -0.6103
vn 0.6103 0.6138 -0.5008
vn 0.6962 0.6138 -0.3722
vn 0.7555 0.6138 -0.2292
vn 0.7857 0.6138 -0.0774
vn 0.7857 0.6138 0.0774
vn 0.7555 0.6138 0.2292
vn 0.6962 0.6138 0.3721
vn 0.6103 0.6138 0.5008
vn 0.5008 0.6138 0.6103
vn 0.3722 0.6138 0.6962
vn 0.2292 0.6138 0.7555
vn 0.0774 0.6138 0.7857
vn -0.0774 0.6138 0.7857
vn -0.2292 0.6138 0.7555
vn -0.3722 0.6138 0.6962
vn -0.5008 0.6138 0.6103
vn -0.6103 0.6138 0.5008
vn -0.6962 0.6138 0.3721
vn -0.7555 0.6138 0.2292
vn -0.7857 0.6138 0.0774
vn -0.7857 0.6138 -0.0774
vn -0.7555 0.6138 -0.2292
vn -0.6962 0.6138 -0.3722
vn -0.6103 0.6138 -0.5008
vn -0.5008 0.6138 -0.6103
vn -0.3721 0.6138 -0.6962
vn -0.2292 0.6138 -0.7555
vn -0.0774 0.6138 -0.7857
vn 0.0000 -1.0000 0.0000
usemtl Material.002
s off
f 34/66/34 57/67/34 35/68/34
f 35/68/35 57/67/35 36/69/35
f 36/69/36 57/67/36 37/70/36
f 37/70/37 57/67/37 38/71/37
f 38/71/38 57/67/38 39/72/38
f 39/72/39 57/67/39 40/73/39
f 40/73/40 57/67/40 41/74/40
f 41/74/41 57/67/41 42/75/41
f 42/75/42 57/67/42 43/76/42
f 43/76/43 57/67/43 44/77/43
f 44/77/44 57/67/44 45/78/44
f 45/78/45 57/67/45 46/79/45
f 46/79/46 57/67/46 47/80/46
f 47/80/47 57/67/47 48/81/47
f 48/81/48 57/67/48 49/82/48
f 49/82/49 57/67/49 50/83/49
f 50/83/50 57/67/50 51/84/50
f 51/84/51 57/67/51 52/85/51
f 52/85/52 57/67/52 53/86/52
f 53/86/53 57/67/53 54/87/53
f 54/87/54 57/67/54 55/88/54
f 55/88/55 57/67/55 56/89/55
f 56/89/56 57/67/56 58/90/56
f 58/90/57 57/67/57 59/91/57
f 59/91/58 57/67/58 60/92/58
f 60/92/59 57/67/59 61/93/59
f 61/93/60 57/67/60 62/94/60
f 62/94/61 57/67/61 63/95/61
f 63/95/62 57/67/62 64/96/62
f 64/96/63 57/67/63 65/97/63
f 65/97/64 57/67/64 66/98/64
f 66/98/65 57/67/65 34/66/65
f 34/99/66 35/100/66 36/101/66 37/102/66 38/103/66 39/104/66 40/105/66 41/106/66 42/107/66 43/108/66 44/109/66 45/110/66 46/111/66 47/112/66 48/113/66 49/114/66 50/115/66 51/116/66 52/117/66 53/118/66 54/119/66 55/120/66 56/121/66 58/122/66 59/123/66 60/124/66 61/125/66 62/126/66 63/127/66 64/128/66 65/129/66 66/130/66
o Cone.002
v 0.000000 -2.000000 -3.000000
v 0.585271 -2.000000 -2.942356
v 1.148050 -2.000000 -2.771638
v 1.666711 -2.000000 -2.494409
v 2.121320 -2.000000 -2.121320
v 2.494409 -2.000000 -1.666711
v 2.771638 -2.000000 -1.148050
v 2.942356 -2.000000 -0.585271
v 3.000000 -2.000000 -0.000000
v 2.942356 -2.000000 0.585271
v 2.771639 -2.000000 1.148050
v 2.494409 -2.000000 1.666711
v 2.121320 -2.000000 2.121320
v 1.666711 -2.000000 2.494409
v 1.148050 -2.000000 2.771639
v 0.585270 -2.000000 2.942356
v -0.000001 -2.000000 3.000000
v -0.585272 -2.000000 2.942356
v -1.148052 -2.000000 2.771638
v -1.666712 -2.000000 2.494408
v -2.121322 -2.000000 2.121319
v -2.494410 -2.000000 1.666709
v -2.771640 -2.000000 1.148048
v 0.000000 2.000000 0.000000
v -2.942356 -2.000000 0.585268
v -3.000000 -2.000000 -0.000003
v -2.942355 -2.000000 -0.585274
v -2.771637 -2.000000 -1.148053
v -2.494407 -2.000000 -1.666714
v -2.121318 -2.000000 -2.121323
v -1.666707 -2.000000 -2.494411
v -1.148046 -2.000000 -2.771640
v -0.585266 -2.000000 -2.942357
vt 0.250000 0.490000
vt 0.250000 0.250000
vt 0.296822 0.485388
vt 0.341844 0.471731
vt 0.383337 0.449553
vt 0.419706 0.419706
vt 0.449553 0.383337
vt 0.471731 0.341844
vt 0.485388 0.296822
vt 0.490000 0.250000
vt 0.485388 0.203178
vt 0.471731 0.158156
vt 0.449553 0.116663
vt 0.419706 0.080294
vt 0.383337 0.050447
vt 0.341844 0.028269
vt 0.296822 0.014612
vt 0.250000 0.010000
vt 0.203178 0.014612
vt 0.158156 0.028269
vt 0.116663 0.050447
vt 0.080294 0.080294
vt 0.050447 0.116663
vt 0.028269 0.158156
vt 0.014611 0.203179
vt 0.010000 0.250000
vt 0.014612 0.296822
vt 0.028269 0.341844
vt 0.050447 0.383337
vt 0.080295 0.419706
vt 0.116663 0.449553
vt 0.158156 0.471731
vt 0.203179 0.485389
vt 0.750000 0.490000
vt 0.796822 0.485388
vt 0.841844 0.471731
vt 0.883337 0.449553
vt 0.919706 0.419706
vt 0.949553 0.383337
vt 0.971731 0.341844
vt 0.985388 0.296822
vt 0.990000 0.250000
vt 0.985388 0.203178
vt 0.971731 0.158156
vt 0.949553 0.116663
vt 0.919706 0.080294
vt 0.883337 0.050447
vt 0.841844 0.028269
vt 0.796822 0.014612
vt 0.750000 0.010000
vt 0.703178 0.014612
vt 0.658156 0.028269
vt 0.616663 0.050447
vt 0.580294 0.080294
vt 0.550447 0.116663
vt 0.528269 0.158156
vt 0.514611 0.203179
vt 0.510000 0.250000
vt 0.514612 0.296822
vt 0.528269 0.341844
vt 0.550447 0.383337
vt 0.580295 0.419706
vt 0.616663 0.449553
vt 0.658156 0.471731
vt 0.703179 0.485389
vn 0.0785 0.5981 -0.7975
vn 0.2326 0.5981 -0.7669
vn 0.3778 0.5981 -0.7068
vn 0.5084 0.5981 -0.6195
vn 0.6195 0.5981 -0.5084
vn 0.7068 0.5981 -0.3778
vn 0.7669 0.5981 -0.2326
vn 0.7975 0.5981 -0.0785
vn 0.7975 0.5981 0.0785
vn 0.7669 0.5981 0.2326
vn 0.7068 0.5981 0.3778
vn 0.6195 0.5981 0.5084
vn 0.5084 0.5981 0.6195
vn 0.3778 0.5981 0.7068
vn 0.2326 0.5981 0.7669
vn 0.0785 0.5981 0.7975
vn -0.0785 0.5981 0.7975
vn -0.2326 0.5981 0.7669
vn -0.3778 0.5981 0.7068
vn -0.5084 0.5981 0.6195
vn -0.6195 0.5981 0.5084
vn -0.7068 0.5981 0.3778
vn -0.7669 0.5981 0.2326
vn -0.7975 0.5981 0.0785
vn -0.7975 0.5981 -0.0786
vn -0.7669 0.5981 -0.2326
vn -0.7068 0.5981 -0.3778
vn -0.6195 0.5981 -0.5084
vn -0.5084 0.5981 -0.6195
vn -0.3778 0.5981 -0.7068
vn -0.2326 0.5981 -0.7669
vn -0.0785 0.5981 -0.7975
vn 0.0000 -1.0000 0.0000
usemtl Material.003
s off
f 67/131/67 90/132/67 68/133/67
f 68/133/68 90/132/68 69/134/68
f 69/134/69 90/132/69 70/135/69
f 70/135/70 90/132/70 71/136/70
f 71/136/71 90/132/71 72/137/71
f 72/137/72 90/132/72 73/138/72
f 73/138/73 90/132/73 74/139/73
f 74/139/74 90/132/74 75/140/74
f 75/140/75 90/132/75 76/141/75
f 76/141/76 90/132/76 77/142/76
f 77/142/77 90/132/77 78/143/77
f 78/143/78 90/132/78 79/144/78
f 79/144/79 90/132/79 80/145/79
f 80/145/80 90/132/80 81/146/80
f 81/146/81 90/132/81 82/147/81
f 82/147/82 90/132/82 83/148/82
f 83/148/83 90/132/83 84/149/83
f 84/149/84 90/132/84 85/150/84
f 85/150/85 90/132/85 86/151/85
f 86/151/86 90/132/86 87/152/86
f 87/152/87 90/132/87 88/153/87
f 88/153/88 90/132/88 89/154/88
f 89/154/89 90/132/89 91/155/89
f 91/155/90 90/132/90 92/156/90
f 92/156/91 90/132/91 93/157/91
f 93/157/92 90/132/92 94/158/92
f 94/158/93 90/132/93 95/159/93
f 95/159/94 90/132/94 96/160/94
f 96/160/95 90/132/95 97/161/95
f 97/161/96 90/132/96 98/162/96
f 98/162/97 90/132/97 99/163/97
f 99/163/98 90/132/98 67/131/98
f 67/164/99 68/165/99 69/166/99 70/167/99 71/168/99 72/169/99 73/170/99 74/171/99 75/172/99 76/173/99 77/174/99 78/175/99 79/176/99 80/177/99 81/178/99 82/179/99 83/180/99 84/181/99 85/182/99 86/183/99 87/184/99 88/185/99 89/186/99 91/187/99 92/188/99 93/189/99 94/190/99 95/191/99 96/192/99 97/193/99 98/194/99 99/195/99
o Cylinder
v 0.000000 -4.691863 -0.600000
v 0.000000 -0.691863 -0.600000
v 0.117054 -4.691863 -0.588471
v 0.117054 -0.691863 -0.588471
v 0.229610 -4.691863 -0.554328
v 0.229610 -0.691863 -0.554328
v 0.333342 -4.691863 -0.498882
v 0.333342 -0.691863 -0.498882
v 0.424264 -4.691863 -0.424264
v 0.424264 -0.691863 -0.424264
v 0.498882 -4.691863 -0.333342
v 0.498882 -0.691863 -0.333342
v 0.554328 -4.691863 -0.229610
v 0.554328 -0.691863 -0.229610
v 0.588471 -4.691863 -0.117054
v 0.588471 -0.691863 -0.117054
v 0.600000 -4.691863 -0.000000
v 0.600000 -0.691863 -0.000000
v 0.588471 -4.691863 0.117054
v 0.588471 -0.691863 0.117054
v 0.554328 -4.691863 0.229610
v 0.554328 -0.691863 0.229610
v 0.498882 -4.691863 0.333342
v 0.498882 -0.691863 0.333342
v 0.424264 -4.691863 0.424264
v 0.424264 -0.691863 0.424264
v 0.333342 -4.691863 0.498882
v 0.333342 -0.691863 0.498882
v 0.229610 -4.691863 0.554328
v 0.229610 -0.691863 0.554328
v 0.117054 -4.691863 0.588471
v 0.117054 -0.691863 0.588471
v -0.000000 -4.691863 0.600000
v -0.000000 -0.691863 0.600000
v -0.117054 -4.691863 0.588471
v -0.117054 -0.691863 0.588471
v -0.229610 -4.691863 0.554328
v -0.229610 -0.691863 0.554328
v -0.333342 -4.691863 0.498882
v -0.333342 -0.691863 0.498882
v -0.424264 -4.691863 0.424264
v -0.424264 -0.691863 0.424264
v -0.498882 -4.691863 0.333342
v -0.498882 -0.691863 0.333342
v -0.554328 -4.691863 0.229610
v -0.554328 -0.691863 0.229610
v -0.588471 -4.691863 0.117054
v -0.588471 -0.691863 0.117054
v -0.600000 -4.691863 -0.000001
v -0.600000 -0.691863 -0.000001
v -0.588471 -4.691863 -0.117055
v -0.588471 -0.691863 -0.117055
v -0.554327 -4.691863 -0.229611
v -0.554327 -0.691863 -0.229611
v -0.498881 -4.691863 -0.333343
v -0.498881 -0.691863 -0.333343
v -0.424264 -4.691863 -0.424265
v -0.424264 -0.691863 -0.424265
v -0.333341 -4.691863 -0.498882
v -0.333341 -0.691863 -0.498882
v -0.229609 -4.691863 -0.554328
v -0.229609 -0.691863 -0.554328
v -0.117053 -4.691863 -0.588471
v -0.117053 -0.691863 -0.588471
vt 1.000000 0.500000
vt 1.000000 1.000000
vt 0.968750 1.000000
vt 0.968750 0.500000
vt 0.937500 1.000000
vt 0.937500 0.500000
vt 0.906250 1.000000
vt 0.906250 0.500000
vt 0.875000 1.000000
vt 0.875000 0.500000
vt 0.843750 1.000000
vt 0.843750 0.500000
vt 0.812500 1.000000
vt 0.812500 0.500000
vt 0.781250 1.000000
vt 0.781250 0.500000
vt 0.750000 1.000000
vt 0.750000 0.500000
vt 0.718750 1.000000
vt 0.718750 0.500000
vt 0.687500 1.000000
vt 0.687500 0.500000
vt 0.656250 1.000000
vt 0.656250 0.500000
vt 0.625000 1.000000
vt 0.625000 0.500000
vt 0.593750 1.000000
vt 0.593750 0.500000
vt 0.562500 1.000000
vt 0.562500 0.500000
vt 0.531250 1.000000
vt 0.531250 0.500000
vt 0.500000 1.000000
vt 0.500000 0.500000
vt 0.468750 1.000000
vt 0.468750 0.500000
vt 0.437500 1.000000
vt 0.437500 0.500000
vt 0.406250 1.000000
vt 0.406250 0.500000
vt 0.375000 1.000000
vt 0.375000 0.500000
vt 0.343750 1.000000
vt 0.343750 0.500000
vt 0.312500 1.000000
vt 0.312500 0.500000
vt 0.281250 1.000000
vt 0.281250 0.500000
vt 0.250000 1.000000
vt 0.250000 0.500000
vt 0.218750 1.000000
vt 0.218750 0.500000
vt 0.187500 1.000000
vt 0.187500 0.500000
vt 0.156250 1.000000
vt 0.156250 0.500000
vt 0.125000 1.000000
vt 0.125000 0.500000
vt 0.093750 1.000000
vt 0.093750 0.500000
vt 0.062500 1.000000
vt 0.062500 0.500000
vt 0.296822 0.485388
vt 0.250000 0.490000
vt 0.203179 0.485389
vt 0.158156 0.471731
vt 0.116663 0.449553
vt 0.080295 0.419706
vt 0.050447 0.383337
vt 0.028269 0.341844
vt 0.014612 0.296822
vt 0.010000 0.250000
vt 0.014611 0.203179
vt 0.028269 0.158156
vt 0.050447 0.116663
vt 0.080294 0.080294
vt 0.116663 0.050447
vt 0.158156 0.028269
vt 0.203178 0.014612
vt 0.250000 0.010000
vt 0.296822 0.014612
vt 0.341844 0.028269
vt 0.383337 0.050447
vt 0.419706 0.080294
vt 0.449553 0.116663
vt 0.471731 0.158156
vt 0.485388 0.203178
vt 0.490000 0.250000
vt 0.485388 0.296822
vt 0.471731 0.341844
vt 0.449553 0.383337
vt 0.419706 0.419706
vt 0.383337 0.449553
vt 0.341844 0.471731
vt 0.031250 1.000000
vt 0.031250 0.500000
vt 0.000000 1.000000
vt 0.000000 0.500000
vt 0.750000 0.490000
vt 0.796822 0.485388
vt 0.841844 0.471731
vt 0.883337 0.449553
vt 0.919706 0.419706
vt 0.949553 0.383337
vt 0.971731 0.341844
vt 0.985388 0.296822
vt 0.990000 0.250000
vt 0.985388 0.203178
vt 0.971731 0.158156
vt 0.949553 0.116663
vt 0.919706 0.080294
vt 0.883337 0.050447
vt 0.841844 0.028269
vt 0.796822 0.014612
vt 0.750000 0.010000
vt 0.703178 0.014612
vt 0.658156 0.028269
vt 0.616663 0.050447
vt 0.580294 0.080294
vt 0.550447 0.116663
vt 0.528269 0.158156
vt 0.514611 0.203179
vt 0.510000 0.250000
vt 0.514612 0.296822
vt 0.528269 0.341844
vt 0.550447 0.383337
vt 0.580295 0.419706
vt 0.616663 0.449553
vt 0.658156 0.471731
vt 0.703179 0.485389
vn 0.0980 0.0000 -0.9952
vn 0.2903 0.0000 -0.9569
vn 0.4714 0.0000 -0.8819
vn 0.6344 0.0000 -0.7730
vn 0.7730 0.0000 -0.6344
vn 0.8819 0.0000 -0.4714
vn 0.9569 0.0000 -0.2903
vn 0.9952 0.0000 -0.0980
vn 0.9952 0.0000 0.0980
vn 0.9569 0.0000 0.2903
vn 0.8819 0.0000 0.4714
vn 0.7730 0.0000 0.6344
vn 0.6344 0.0000 0.7730
vn 0.4714 0.0000 0.8819
vn 0.2903 0.0000 0.9569
vn 0.0980 0.0000 0.9952
vn -0.0980 0.0000 0.9952
vn -0.2903 0.0000 0.9569
vn -0.4714 0.0000 0.8819
vn -0.6344 0.0000 0.7730
vn -0.7730 0.0000 0.6344
vn -0.8819 0.0000 0.4714
vn -0.9569 0.0000 0.2903
vn -0.9952 0.0000 0.0980
vn -0.9952 0.0000 -0.0980
vn -0.9569 0.0000 -0.2903
vn -0.8819 0.0000 -0.4714
vn -0.7730 0.0000 -0.6344
vn -0.6344 0.0000 -0.7730
vn -0.4714 0.0000 -0.8819
vn 0.0000 1.0000 -0.0000
vn -0.2903 0.0000 -0.9569
vn -0.0980 0.0000 -0.9952
vn 0.0000 -1.0000 0.0000
usemtl Material.004
s off
f 100/196/100 101/197/100 103/198/100 102/199/100
f 102/199/101 103/198/101 105/200/101 104/201/101
f 104/201/102 105/200/102 107/202/102 106/203/102
f 106/203/103 107/202/103 109/204/103 108/205/103
f 108/205/104 109/204/104 111/206/104 110/207/104
f 110/207/105 111/206/105 113/208/105 112/209/105
f 112/209/106 113/208/106 115/210/106 114/211/106
f 114/211/107 115/210/107 117/212/107 116/213/107
f 116/213/108 117/212/108 119/214/108 118/215/108
f 118/215/109 119/214/109 121/216/109 120/217/109
f 120/217/110 121/216/110 123/218/110 122/219/110
f 122/219/111 123/218/111 125/220/111 124/221/111
f 124/221/112 125/220/112 127/222/112 126/223/112
f 126/223/113 127/222/113 129/224/113 128/225/113
f 128/225/114 129/224/114 131/226/114 130/227/114
f 130/227/115 131/226/115 133/228/115 132/229/115
f 132/229/116 133/228/116 135/230/116 134/231/116
f 134/231/117 135/230/117 137/232/117 136/233/117
f 136/233/118 137/232/118 139/234/118 138/235/118
f 138/235/119 139/234/119 141/236/119 140/237/119
f 140/237/120 141/236/120 143/238/120 142/239/120
f 142/239/121 143/238/121 145/240/121 144/241/121
f 144/241/122 145/240/122 147/242/122 146/243/122
f 146/243/123 147/242/123 149/244/123 148/245/123
f 148/245/124 149/244/124 151/246/124 150/247/124
f 150/247/125 151/246/125 153/248/125 152/249/125
f 152/249/126 153/248/126 155/250/126 154/251/126
f 154/251/127 155/250/127 157/252/127 156/253/127
f 156/253/128 157/252/128 159/254/128 158/255/128
f 158/255/129 159/254/129 161/256/129 160/257/129
f 103/258/130 101/259/130 163/260/130 161/261/130 159/262/130 157/263/130 155/264/130 153/265/130 151/266/130 149/267/130 147/268/130 145/269/130 143/270/130 141/271/130 139/272/130 137/273/130 135/274/130 133/275/130 131/276/130 129/277/130 127/278/130 125/279/130 123/280/130 121/281/130 119/282/130 117/283/130 115/284/130 113/285/130 111/286/130 109/287/130 107/288/130 105/289/130
f 160/257/131 161/256/131 163/290/131 162/291/131
f 162/291/132 163/290/132 101/292/132 100/293/132
f 100/294/133 102/295/133 104/296/133 106/297/133 108/298/133 110/299/133 112/300/133 114/301/133 116/302/133 118/303/133 120/304/133 122/305/133 124/306/133 126/307/133 128/308/133 130/309/133 132/310/133 134/311/133 136/312/133 138/313/133 140/314/133 142/315/133 144/316/133 146/317/133 148/318/133 150/319/133 152/320/133 154/321/133 156/322/133 158/323/133 160/324/133 162/325/133
