# Blender v2.80 (sub 45) OBJ File: 'tree2.blend'
# www.blender.org
mtllib tree2.mtl
o Cylinder
v 0.000000 0.051890 -1.000000
v 0.000000 3.559383 -1.000000
v 0.195090 0.051890 -0.980785
v 0.195090 3.559383 -0.980785
v 0.382683 0.051890 -0.923880
v 0.382683 3.559383 -0.923880
v 0.555570 0.051890 -0.831470
v 0.555570 3.559383 -0.831470
v 0.707107 0.051890 -0.707107
v 0.707107 3.559383 -0.707107
v 0.831470 0.051890 -0.555570
v 0.831470 3.559383 -0.555570
v 0.923880 0.051890 -0.382683
v 0.923880 3.559383 -0.382683
v 0.980785 0.051890 -0.195090
v 0.980785 3.559383 -0.195090
v 1.000000 0.051890 -0.000000
v 1.000000 3.559383 -0.000000
v 0.980785 0.051890 0.195090
v 0.980785 3.559383 0.195090
v 0.923880 0.051890 0.382683
v 0.923880 3.559383 0.382683
v 0.831470 0.051890 0.555570
v 0.831470 3.559383 0.555570
v 0.707107 0.051890 0.707107
v 0.707107 3.559383 0.707107
v 0.555570 0.051890 0.831470
v 0.555570 3.559383 0.831470
v 0.382683 0.051890 0.923880
v 0.382683 3.559383 0.923880
v 0.195090 0.051890 0.980785
v 0.195090 3.559383 0.980785
v -0.000000 0.051890 1.000000
v -0.000000 3.559383 1.000000
v -0.195091 0.051890 0.980785
v -0.195091 3.559383 0.980785
v -0.382684 0.051890 0.923879
v -0.382684 3.559383 0.923879
v -0.555571 0.051890 0.831469
v -0.555571 3.559383 0.831469
v -0.707107 0.051890 0.707106
v -0.707107 3.559383 0.707106
v -0.831470 0.051890 0.555570
v -0.831470 3.559383 0.555570
v -0.923880 0.051890 0.382683
v -0.923880 3.559383 0.382683
v -0.980785 0.051890 0.195089
v -0.980785 3.559383 0.195089
v -1.000000 0.051890 -0.000001
v -1.000000 3.559383 -0.000001
v -0.980785 0.051890 -0.195091
v -0.980785 3.559383 -0.195091
v -0.923879 0.051890 -0.382684
v -0.923879 3.559383 -0.382684
v -0.831469 0.051890 -0.555571
v -0.831469 3.559383 -0.555571
v -0.707106 0.051890 -0.707108
v -0.707106 3.559383 -0.707108
v -0.555569 0.051890 -0.831470
v -0.555569 3.559383 -0.831470
v -0.382682 0.051890 -0.923880
v -0.382682 3.559383 -0.923880
v -0.195089 0.051890 -0.980786
v -0.195089 3.559383 -0.980786
vt 1.000000 0.500000
vt 1.000000 1.000000
vt 0.968750 1.000000
vt 0.968750 0.500000
vt 0.937500 1.000000
vt 0.937500 0.500000
vt 0.906250 1.000000
vt 0.906250 0.500000
vt 0.875000 1.000000
vt 0.875000 0.500000
vt 0.843750 1.000000
vt 0.843750 0.500000
vt 0.812500 1.000000
vt 0.812500 0.500000
vt 0.781250 1.000000
vt 0.781250 0.500000
vt 0.750000 1.000000
vt 0.750000 0.500000
vt 0.718750 1.000000
vt 0.718750 0.500000
vt 0.687500 1.000000
vt 0.687500 0.500000
vt 0.656250 1.000000
vt 0.656250 0.500000
vt 0.625000 1.000000
vt 0.625000 0.500000
vt 0.593750 1.000000
vt 0.593750 0.500000
vt 0.562500 1.000000
vt 0.562500 0.500000
vt 0.531250 1.000000
vt 0.531250 0.500000
vt 0.500000 1.000000
vt 0.500000 0.500000
vt 0.468750 1.000000
vt 0.468750 0.500000
vt 0.437500 1.000000
vt 0.437500 0.500000
vt 0.406250 1.000000
vt 0.406250 0.500000
vt 0.375000 1.000000
vt 0.375000 0.500000
vt 0.343750 1.000000
vt 0.343750 0.500000
vt 0.312500 1.000000
vt 0.312500 0.500000
vt 0.281250 1.000000
vt 0.281250 0.500000
vt 0.250000 1.000000
vt 0.250000 0.500000
vt 0.218750 1.000000
vt 0.218750 0.500000
vt 0.187500 1.000000
vt 0.187500 0.500000
vt 0.156250 1.000000
vt 0.156250 0.500000
vt 0.125000 1.000000
vt 0.125000 0.500000
vt 0.093750 1.000000
vt 0.093750 0.500000
vt 0.062500 1.000000
vt 0.062500 0.500000
vt 0.296822 0.485388
vt 0.250000 0.490000
vt 0.203179 0.485389
vt 0.158156 0.471731
vt 0.116663 0.449553
vt 0.080295 0.419706
vt 0.050447 0.383337
vt 0.028269 0.341844
vt 0.014612 0.296822
vt 0.010000 0.250000
vt 0.014611 0.203179
vt 0.028269 0.158156
vt 0.050447 0.116663
vt 0.080294 0.080294
vt 0.116663 0.050447
vt 0.158156 0.028269
vt 0.203178 0.014612
vt 0.250000 0.010000
vt 0.296822 0.014612
vt 0.341844 0.028269
vt 0.383337 0.050447
vt 0.419706 0.080294
vt 0.449553 0.116663
vt 0.471731 0.158156
vt 0.485388 0.203178
vt 0.490000 0.250000
vt 0.485388 0.296822
vt 0.471731 0.341844
vt 0.449553 0.383337
vt 0.419706 0.419706
vt 0.383337 0.449553
vt 0.341844 0.471731
vt 0.031250 1.000000
vt 0.031250 0.500000
vt 0.000000 1.000000
vt 0.000000 0.500000
vt 0.750000 0.490000
vt 0.796822 0.485388
vt 0.841844 0.471731
vt 0.883337 0.449553
vt 0.919706 0.419706
vt 0.949553 0.383337
vt 0.971731 0.341844
vt 0.985388 0.296822
vt 0.990000 0.250000
vt 0.985388 0.203178
vt 0.971731 0.158156
vt 0.949553 0.116663
vt 0.919706 0.080294
vt 0.883337 0.050447
vt 0.841844 0.028269
vt 0.796822 0.014612
vt 0.750000 0.010000
vt 0.703178 0.014612
vt 0.658156 0.028269
vt 0.616663 0.050447
vt 0.580294 0.080294
vt 0.550447 0.116663
vt 0.528269 0.158156
vt 0.514611 0.203179
vt 0.510000 0.250000
vt 0.514612 0.296822
vt 0.528269 0.341844
vt 0.550447 0.383337
vt 0.580295 0.419706
vt 0.616663 0.449553
vt 0.658156 0.471731
vt 0.703179 0.485389
vn 0.0980 0.0000 -0.9952
vn 0.2903 0.0000 -0.9569
vn 0.4714 0.0000 -0.8819
vn 0.6344 0.0000 -0.7730
vn 0.7730 0.0000 -0.6344
vn 0.8819 0.0000 -0.4714
vn 0.9569 0.0000 -0.2903
vn 0.9952 0.0000 -0.0980
vn 0.9952 0.0000 0.0980
vn 0.9569 0.0000 0.2903
vn 0.8819 0.0000 0.4714
vn 0.7730 0.0000 0.6344
vn 0.6344 0.0000 0.7730
vn 0.4714 0.0000 0.8819
vn 0.2903 0.0000 0.9569
vn 0.0980 0.0000 0.9952
vn -0.0980 0.0000 0.9952
vn -0.2903 0.0000 0.9569
vn -0.4714 0.0000 0.8819
vn -0.6344 0.0000 0.7730
vn -0.7730 0.0000 0.6344
vn -0.8819 0.0000 0.4714
vn -0.9569 0.0000 0.2903
vn -0.9952 0.0000 0.0980
vn -0.9952 0.0000 -0.0980
vn -0.9569 0.0000 -0.2903
vn -0.8819 0.0000 -0.4714
vn -0.7730 0.0000 -0.6344
vn -0.6344 0.0000 -0.7730
vn -0.4714 0.0000 -0.8819
vn 0.0000 1.0000 0.0000
vn -0.2903 0.0000 -0.9569
vn -0.0980 0.0000 -0.9952
vn 0.0000 -1.0000 0.0000
usemtl Material.002
s off
f 1/1/1 2/2/1 4/3/1 3/4/1
f 3/4/2 4/3/2 6/5/2 5/6/2
f 5/6/3 6/5/3 8/7/3 7/8/3
f 7/8/4 8/7/4 10/9/4 9/10/4
f 9/10/5 10/9/5 12/11/5 11/12/5
f 11/12/6 12/11/6 14/13/6 13/14/6
f 13/14/7 14/13/7 16/15/7 15/16/7
f 15/16/8 16/15/8 18/17/8 17/18/8
f 17/18/9 18/17/9 20/19/9 19/20/9
f 19/20/10 20/19/10 22/21/10 21/22/10
f 21/22/11 22/21/11 24/23/11 23/24/11
f 23/24/12 24/23/12 26/25/12 25/26/12
f 25/26/13 26/25/13 28/27/13 27/28/13
f 27/28/14 28/27/14 30/29/14 29/30/14
f 29/30/15 30/29/15 32/31/15 31/32/15
f 31/32/16 32/31/16 34/33/16 33/34/16
f 33/34/17 34/33/17 36/35/17 35/36/17
f 35/36/18 36/35/18 38/37/18 37/38/18
f 37/38/19 38/37/19 40/39/19 39/40/19
f 39/40/20 40/39/20 42/41/20 41/42/20
f 41/42/21 42/41/21 44/43/21 43/44/21
f 43/44/22 44/43/22 46/45/22 45/46/22
f 45/46/23 46/45/23 48/47/23 47/48/23
f 47/48/24 48/47/24 50/49/24 49/50/24
f 49/50/25 50/49/25 52/51/25 51/52/25
f 51/52/26 52/51/26 54/53/26 53/54/26
f 53/54/27 54/53/27 56/55/27 55/56/27
f 55/56/28 56/55/28 58/57/28 57/58/28
f 57/58/29 58/57/29 60/59/29 59/60/29
f 59/60/30 60/59/30 62/61/30 61/62/30
f 4/63/31 2/64/31 64/65/31 62/66/31 60/67/31 58/68/31 56/69/31 54/70/31 52/71/31 50/72/31 48/73/31 46/74/31 44/75/31 42/76/31 40/77/31 38/78/31 36/79/31 34/80/31 32/81/31 30/82/31 28/83/31 26/84/31 24/85/31 22/86/31 20/87/31 18/88/31 16/89/31 14/90/31 12/91/31 10/92/31 8/93/31 6/94/31
f 61/62/32 62/61/32 64/95/32 63/96/32
f 63/96/33 64/95/33 2/97/33 1/98/33
f 1/99/34 3/100/34 5/101/34 7/102/34 9/103/34 11/104/34 13/105/34 15/106/34 17/107/34 19/108/34 21/109/34 23/110/34 25/111/34 27/112/34 29/113/34 31/114/34 33/115/34 35/116/34 37/117/34 39/118/34 41/119/34 43/120/34 45/121/34 47/122/34 49/123/34 51/124/34 53/125/34 55/126/34 57/127/34 59/128/34 61/129/34 63/130/34
o Icosphere
v 0.000000 1.991646 0.000000
v 2.372311 6.555319 1.872746
v -0.906125 6.555316 3.030195
v -2.932333 6.555351 0.000000
v -0.906125 6.555316 -3.030195
v 2.372311 6.555319 -1.872746
v 0.963529 13.939677 2.485081
v -2.372311 13.939674 1.872746
v -2.790315 13.939674 -1.872746
v 0.223437 13.939677 -3.030195
v 2.932333 13.939642 0.000000
v 0.000000 19.630270 0.000000
v -0.532603 3.224621 1.781090
v 1.394400 3.224623 1.100765
v 0.861803 5.907085 2.881873
v 2.788807 5.907099 0.000000
v 1.394400 3.224623 -1.100765
v -1.723579 3.224643 0.000000
v -2.256195 5.907097 1.781096
v -0.532603 3.224621 -1.781090
v -2.256195 5.907097 -1.781096
v 0.861803 5.907085 -2.881873
v 3.117996 10.247497 1.100769
v 2.791365 11.314365 -1.100769
v 0.449986 10.247497 3.562215
v 1.984431 10.247497 2.336777
v -2.157228 10.247497 1.100769
v -1.927026 10.247497 2.881891
v -2.345030 10.247497 -2.881891
v -2.575232 10.247497 -1.100769
v 0.917708 11.314365 -2.881891
v 0.000000 10.247497 -3.562215
v 1.863614 14.587896 2.175020
v -0.861803 14.587908 2.881873
v -1.828039 14.587894 0.000000
v -0.861803 14.587908 -2.881873
v 1.246877 15.654765 -1.781096
v 0.532603 17.270372 2.720129
v 1.723579 18.397274 0.939038
v -1.394400 17.270370 1.100765
v -1.394400 17.270370 -1.100765
v 0.532603 18.397295 -1.781090
vt 0.818181 0.000000
vt 0.772726 0.078731
vt 0.863635 0.078731
vt 0.727272 0.157461
vt 0.681818 0.078731
vt 0.636363 0.157461
vt 0.090909 0.000000
vt 0.045454 0.078731
vt 0.136363 0.078731
vt 0.272727 0.000000
vt 0.227273 0.078731
vt 0.318182 0.078731
vt 0.454545 0.000000
vt 0.409090 0.078731
vt 0.500000 0.078731
vt 0.681818 0.236191
vt 0.909090 0.157461
vt 0.818181 0.157461
vt 0.863635 0.236191
vt 0.181818 0.157461
vt 0.090909 0.157461
vt 0.136363 0.236191
vt 0.363636 0.157461
vt 0.272727 0.157461
vt 0.318182 0.236191
vt 0.545454 0.157461
vt 0.454545 0.157461
vt 0.500000 0.236191
vt 0.772726 0.236191
vt 0.954545 0.236191
vt 0.227273 0.236191
vt 0.409090 0.236191
vt 0.590909 0.236191
vt 0.818181 0.314921
vt 0.727272 0.314921
vt 0.772726 0.393651
vt 1.000000 0.314921
vt 0.909091 0.314921
vt 0.954545 0.393651
vt 0.272727 0.314921
vt 0.181818 0.314921
vt 0.227273 0.393651
vt 0.454545 0.314921
vt 0.363636 0.314921
vt 0.409090 0.393651
vt 0.636363 0.314921
vt 0.545454 0.314921
vt 0.590909 0.393651
vt 0.500000 0.393651
vt 0.545454 0.472382
vt 0.318182 0.393651
vt 0.363636 0.472382
vt 0.136363 0.393651
vt 0.181818 0.472382
vt 0.090909 0.314921
vt 0.863635 0.393651
vt 0.909090 0.472382
vt 0.681818 0.393651
vt 0.727272 0.472382
vt 0.045454 0.236191
vt 0.000000 0.157461
vt 0.590909 0.078731
vt 0.636363 0.000000
vn 0.2112 -0.7730 0.5983
vn 0.8891 -0.3337 0.3132
vn -0.5422 -0.7580 0.3626
vn -0.5422 -0.7580 -0.3626
vn 0.2112 -0.7730 -0.5983
vn 0.9555 -0.1385 0.2604
vn 0.0270 -0.1523 0.9880
vn -0.9218 0.0805 0.3792
vn -0.6092 -0.2066 -0.7656
vn 0.5572 -0.0058 -0.8304
vn 0.7370 -0.0075 0.6759
vn -0.2750 -0.0374 0.9607
vn -0.9715 0.1490 0.1845
vn -0.2779 -0.0698 -0.9581
vn 0.6879 0.0568 -0.7236
vn 0.3400 -0.0224 0.9402
vn -0.6193 0.3453 0.7052
vn -0.8884 0.2898 0.3562
vn 0.0284 0.2679 -0.9630
vn 0.8227 0.3218 -0.4686
vn 0.6559 0.6981 -0.2872
vn 0.8910 0.2321 -0.3901
vn 0.6385 0.1663 -0.7515
vn -0.5541 0.5977 -0.5794
vn -0.5058 0.4052 -0.7615
vn -0.5267 0.3952 -0.7526
vn -0.8609 0.5087 0.0000
vn -0.9872 0.1596 0.0000
vn -0.9523 0.2342 -0.1957
vn -0.5178 0.5934 0.6162
vn -0.6013 0.3557 0.7155
vn 0.1974 -0.0436 0.9794
vn 0.2061 0.7587 0.6179
vn 0.7332 0.2341 0.6384
vn 0.9039 0.1617 0.3960
vn 0.7993 0.1954 -0.5683
vn 0.6831 0.1304 -0.7186
vn 0.6674 0.1351 -0.7323
vn -0.0483 0.1453 -0.9882
vn -0.2774 0.0948 -0.9561
vn -0.5014 0.1713 -0.8481
vn -0.8944 0.0410 0.4454
vn -0.9752 0.1209 0.1852
vn -0.9605 0.0023 -0.2784
vn -0.5920 0.1453 0.7928
vn -0.2745 0.0674 0.9592
vn 0.2845 0.2318 0.9302
vn 0.2970 0.0438 0.9539
vn 0.7362 0.0457 0.6752
vn 0.9039 0.1633 0.3954
vn 0.5231 0.0905 -0.8475
vn 0.6002 -0.0062 -0.7998
vn 0.0282 -0.1493 -0.9884
vn -0.9882 -0.0843 -0.1277
vn -0.9904 -0.0527 -0.1280
vn -0.9365 -0.0139 -0.3504
vn -0.9882 -0.0843 0.1277
vn -0.9908 0.0427 0.1281
vn -0.6337 -0.1447 0.7600
vn 0.6179 0.1398 0.7737
vn 0.6228 -0.0631 0.7798
vn 0.5679 -0.0436 0.8220
vn 0.9896 0.0070 -0.1434
vn 0.9861 -0.0336 -0.1626
vn 0.9714 -0.0478 -0.2326
vn 0.6193 -0.3453 -0.7052
vn 0.2905 -0.4886 -0.8227
vn -0.0522 -0.3558 -0.9331
vn -0.5413 -0.3478 -0.7655
vn -0.7332 -0.4711 -0.4903
vn -0.9156 -0.3323 -0.2266
vn -0.9156 -0.3323 0.2266
vn -0.7332 -0.4711 0.4903
vn -0.5413 -0.3478 0.7655
vn 0.8891 -0.3337 -0.3132
vn 0.8873 -0.4612 0.0000
vn 0.6624 -0.7491 0.0000
vn -0.0522 -0.3558 0.9331
vn 0.2905 -0.4886 0.8227
vn 0.6193 -0.3453 0.7052
usemtl Material.001
s off
f 65/131/35 78/132/35 77/133/35
f 66/134/36 78/135/36 80/136/36
f 65/137/37 77/138/37 82/139/37
f 65/140/38 82/141/38 84/142/38
f 65/143/39 84/144/39 81/145/39
f 66/134/40 80/136/40 87/146/40
f 67/147/41 79/148/41 89/149/41
f 68/150/42 83/151/42 91/152/42
f 69/153/43 85/154/43 93/155/43
f 70/156/44 86/157/44 95/158/44
f 66/134/45 87/146/45 90/159/45
f 67/147/46 89/149/46 92/160/46
f 68/150/47 91/152/47 94/161/47
f 69/153/48 93/155/48 96/162/48
f 70/156/49 95/158/49 88/163/49
f 71/164/50 97/165/50 102/166/50
f 72/167/51 98/168/51 104/169/51
f 73/170/52 99/171/52 105/172/52
f 74/173/53 100/174/53 106/175/53
f 75/176/54 101/177/54 103/178/54
f 103/178/55 106/179/55 76/180/55
f 103/178/56 101/177/56 106/179/56
f 101/177/57 74/173/57 106/179/57
f 106/175/58 105/181/58 76/182/58
f 106/175/59 100/174/59 105/181/59
f 100/174/60 73/170/60 105/181/60
f 105/172/61 104/183/61 76/184/61
f 105/172/62 99/171/62 104/183/62
f 99/171/63 72/185/63 104/183/63
f 104/169/64 102/186/64 76/187/64
f 104/169/65 98/168/65 102/186/65
f 98/168/66 71/164/66 102/186/66
f 102/166/67 103/188/67 76/189/67
f 102/166/68 97/165/68 103/188/68
f 97/165/69 75/176/69 103/188/69
f 88/163/70 101/177/70 75/176/70
f 88/163/71 95/158/71 101/177/71
f 95/158/72 74/173/72 101/177/72
f 96/162/73 100/174/73 74/173/73
f 96/162/74 93/155/74 100/174/74
f 93/155/75 73/170/75 100/174/75
f 94/161/76 99/171/76 73/170/76
f 94/161/77 91/152/77 99/171/77
f 91/152/78 72/185/78 99/171/78
f 92/160/79 98/168/79 72/167/79
f 92/160/80 89/149/80 98/168/80
f 89/149/81 71/164/81 98/168/81
f 90/159/82 97/165/82 71/164/82
f 90/159/83 87/146/83 97/165/83
f 87/146/84 75/176/84 97/165/84
f 95/158/85 96/162/85 74/173/85
f 95/158/86 86/157/86 96/162/86
f 86/157/87 69/153/87 96/162/87
f 93/155/88 94/161/88 73/170/88
f 93/155/89 85/154/89 94/161/89
f 85/154/90 68/150/90 94/161/90
f 91/152/91 92/190/91 72/185/91
f 91/152/92 83/151/92 92/190/92
f 83/151/93 67/191/93 92/190/93
f 89/149/94 90/159/94 71/164/94
f 89/149/95 79/148/95 90/159/95
f 79/148/96 66/134/96 90/159/96
f 87/146/97 88/163/97 75/176/97
f 87/146/98 80/136/98 88/163/98
f 80/136/99 70/156/99 88/163/99
f 81/145/100 86/157/100 70/156/100
f 81/145/101 84/144/101 86/157/101
f 84/144/102 69/153/102 86/157/102
f 84/142/103 85/154/103 69/153/103
f 84/142/104 82/141/104 85/154/104
f 82/141/105 68/150/105 85/154/105
f 82/139/106 83/151/106 68/150/106
f 82/139/107 77/138/107 83/151/107
f 77/138/108 67/191/108 83/151/108
f 80/136/109 81/192/109 70/156/109
f 80/136/110 78/135/110 81/192/110
f 78/135/111 65/193/111 81/192/111
f 77/133/112 79/148/112 67/147/112
f 77/133/113 78/132/113 79/148/113
f 78/132/114 66/134/114 79/148/114
